# xmcd CD database file
# Copyright (C) 1996 Ti Kan
#
# Track frame offsets:
# 	150
# 	16625
# 	30240
# 	42865
# 	54842
# 	74685
# 	90657
# 	105130
# 	120845
# 	140162
#
# Disc length: 2076 seconds
#
# Revision: 1
# Processed by: cddbd v1.4b41PL1 Copyright (c) Steve Scherf et al.
# Submitted via: DiscPlay 3.4.1
#
DISCID=6e081a0a
DTITLE=Restless Heart - Country Kicks
DYEAR=1900
DGENRE=
TTITLE0=Let The Heartache Ride
TTITLE1=Lady Luck
TTITLE2=The Truth Hurts
TTITLE3=You Can Depend On Me
TTITLE4=Fast Movin' Train
TTITLE5=This Time
TTITLE6=No Way Out
TTITLE7=A Tender Life
TTITLE8=Dancy's Dream
TTITLE9=I Want Everyone To Cry
EXTD=
EXTT0=
EXTT1=
EXTT2=
EXTT3=
EXTT4=
EXTT5=
EXTT6=
EXTT7=
EXTT8=
EXTT9=
PLAYORDER=
